# xmcd
#
# Track frame offsets:
#       150
#       23535
#       42310
#       60472
#       75855
#       94840
#       114917
#       136645
#       156247
#       184622
#
# Disc length: 2766 seconds
#
# Revision: 4
# Processed by: cddbd v1.4PL0 Copyright (c) Steve Scherf et al.
# Submitted via: WhereIsIt 3.26
#
DISCID=670acc0a
DTITLE=Strength In Numbers - The Telluride Sessions
DYEAR=1900
DGENRE=
TTITLE0=Future Man
TTITLE1=Texas Red
TTITLE2=Pink Flamingos
TTITLE3=Duke And Cookie
TTITLE4=One Winter's Night
TTITLE5=Macedonia
TTITLE6=The Lochs Of Dread
TTITLE7=No Apologies
TTITLE8=Slopes
TTITLE9=Blue Men Of The Sahara
EXTD=
EXTT0=
EXTT1=
EXTT2=
EXTT3=
EXTT4=
EXTT5=
EXTT6=
EXTT7=
EXTT8=
EXTT9=
PLAYORDER=
